<svg id="Raggruppa_240" data-name="Raggruppa 240" xmlns="http://www.w3.org/2000/svg" xmlns:xlink="http://www.w3.org/1999/xlink" width="212" height="71" viewBox="0 0 212 71">
  <defs>
    <clipPath id="clip-path">
      <rect id="Rettangolo_733" data-name="Rettangolo 733" width="212" height="71" transform="translate(0 0)" fill="none"/>
    </clipPath>
  </defs>
  <g id="Raggruppa_58" data-name="Raggruppa 58" transform="translate(0 0)" clip-path="url(#clip-path)">
    <path id="Tracciato_100" data-name="Tracciato 100" d="M8.491,69.971,43.606,31.408,61.2,49.195,43.289,68.87a.658.658,0,0,0,.483,1.1H51L106.4,9.135l55.4,60.836,7.155-.1a.659.659,0,0,0,.474-1.1L150.977,48.51l16.921-17.1,35.115,38.563h7.836a.658.658,0,0,0,.482-1.1L168.747,22.1a.906.906,0,0,0-1.316-.025L157.349,32.274,136.8,9.7A.906.906,0,0,0,135.5,9.65L124.778,19.738,107.074.3a.908.908,0,0,0-1.34,0L88.479,19.243,77.736,9.176a.906.906,0,0,0-1.291.049L54.836,32.959,44.068,22.076a.9.9,0,0,0-1.311.029L.173,68.87a.658.658,0,0,0,.483,1.1ZM135.822,18.208l16.987,18.657-6.475,6.545L129.12,24.5Zm-58.4-.483,6.71,6.285L65.851,44.094l-6.475-6.545Z" transform="translate(0 0)" fill="#fff"/>
  </g>
</svg>
